<svg width="180" height="21" viewBox="0 0 180 21" fill="none" xmlns="http://www.w3.org/2000/svg">
<g clip-path="url(#clip0_930_5439)">
<path d="M5.41423 0H0V21H5.41423V0Z" fill="#115EED"/>
<path d="M16.2424 5.15039H10.8281V21H16.2424V5.15039Z" fill="#115EED"/>
<path d="M10.8283 15.7251H5.41406V21.0001H10.8283V15.7251Z" fill="#115EED"/>
<path d="M10.8283 5.17505H5.41406V10.45H10.8283V5.17505Z" fill="#115EED"/>
<path d="M32.4862 21H37.9004V0H32.4862V21Z" fill="#12DB63"/>
<path d="M21.6571 21.0012H27.0713L27.0713 5.15162H21.6571V21.0012Z" fill="#12DB63"/>
<path d="M27.0711 21.0012H32.4854V15.7262H27.0711V21.0012Z" fill="#12DB63"/>
<path d="M27.0711 10.4512H32.4854V5.1762L27.0711 5.1762V10.4512Z" fill="#12DB63"/>
<path d="M59.0757 20.7902H50.2803V2.39502H58.7795C62.6252 2.39502 64.9114 4.25612 64.9114 7.16433C64.9114 9.39173 63.5405 10.8335 61.7113 11.3577C63.9165 11.8029 65.3418 13.6899 65.3418 15.7866C65.3418 18.8255 63.0557 20.7902 59.0757 20.7902ZM57.8921 5.99019H54.8793V9.83697H57.8921C59.3985 9.83697 60.2314 9.18206 60.2314 7.92406C60.2314 6.66606 59.3985 5.98526 57.8921 5.98526V5.99019ZM58.2149 13.1176H54.8793V17.179H58.268C59.801 17.179 60.6884 16.4982 60.6884 15.1884C60.6884 13.8786 59.7504 13.1127 58.2149 13.1127V13.1176Z" fill="#23272F"/>
<path d="M82.4989 20.7904H77.8999V18.7998C76.986 20.0566 75.3681 20.9483 73.3541 20.9483C69.8856 20.9483 67.5449 18.616 67.5449 14.7113V6.16675H72.1173V14.1057C72.1173 16.0976 73.2744 17.1977 74.9947 17.1977C76.767 17.1977 77.9063 16.0976 77.9063 14.1057V6.16675H82.4989V20.7904Z" fill="#23272F"/>
<path d="M92.1092 5.95947C95.874 5.95947 98.5361 7.97721 99.3172 11.4614H94.422C94.0422 10.4402 93.2915 9.78528 92.0282 9.78528C90.3825 9.78528 89.2572 11.0433 89.2572 13.4853C89.2572 15.9273 90.3876 17.1853 92.0282 17.1853C93.2941 17.1853 94.0182 16.5834 94.422 15.508H99.3172C98.5361 18.8885 95.874 21.0111 92.1092 21.0111C87.6976 21.0111 84.5771 18.1288 84.5771 13.4878C84.5771 8.86768 87.6976 5.95947 92.1092 5.95947Z" fill="#23272F"/>
<path d="M107.559 5.95947C109.792 5.95947 111.378 6.95477 112.186 8.23868V6.16667H116.785V20.7903H112.186V18.7208C111.352 20.0047 109.765 21 107.532 21C103.875 21 100.943 18.0659 100.943 13.4532C100.943 8.84054 103.875 5.95947 107.559 5.95947ZM108.905 9.86668C107.183 9.86668 105.622 11.1247 105.622 13.4569C105.622 15.7892 107.183 17.099 108.905 17.099C110.653 17.099 112.186 15.8151 112.186 13.4828C112.186 11.1506 110.653 9.86668 108.905 9.86668Z" fill="#23272F"/>
<path d="M118.305 2.39502H132.909V5.98526H127.906V20.7853H123.307V5.98526H118.305V2.39502Z" fill="#23272F"/>
<path d="M139.677 21.0001C135.266 21.0001 132.093 18.1177 132.093 13.4767C132.093 8.83567 135.213 5.95337 139.677 5.95337C144.062 5.95337 147.154 8.78264 147.154 13.2374C147.154 13.6756 147.127 14.1134 147.073 14.5485H136.665C136.826 16.4614 138.036 17.3518 139.516 17.3518C140.807 17.3518 141.533 16.7228 141.91 15.9372H146.805C146.083 18.7998 143.416 21.0001 139.677 21.0001ZM136.692 12.0645H142.448C142.448 10.4612 141.157 9.54854 139.624 9.54854C138.117 9.54854 136.961 10.4402 136.692 12.0645Z" fill="#23272F"/>
<path d="M155.87 5.95947C159.634 5.95947 162.298 7.97721 163.078 11.4614H158.182C157.803 10.4402 157.053 9.78528 155.789 9.78528C154.143 9.78528 153.019 11.0433 153.019 13.4853C153.019 15.9273 154.148 17.1853 155.789 17.1853C157.055 17.1853 157.779 16.5834 158.182 15.508H163.078C162.298 18.8885 159.634 21.0111 155.87 21.0111C151.458 21.0111 148.339 18.1288 148.339 13.4878C148.339 8.86768 151.458 5.95947 155.87 5.95947Z" fill="#23272F"/>
<path d="M165.072 1.3999H169.673V8.14008C170.587 6.88208 172.227 6.01751 174.298 6.01751C177.716 6.01751 179.995 8.32385 179.995 12.2545V20.7966H175.427V12.8514C175.427 10.8596 174.298 9.75821 172.55 9.75821C170.802 9.75821 169.673 10.8596 169.673 12.8514V20.7904H165.072V1.3999Z" fill="#23272F"/>
</g>
<defs>
<clipPath id="clip0_930_5439">
<rect width="180" height="21" fill="white"/>
</clipPath>
</defs>
</svg>
