<svg width="470" height="335" viewBox="0 0 470 335" fill="none" xmlns="http://www.w3.org/2000/svg">
<g clip-path="url(#clip0_1244_11394)">
<g opacity="0.2">
<path opacity="0.2" d="M117.536 132.278C116.262 116.608 103.517 98.3965 89.2145 91.7615C81.9924 88.3734 75.9032 88.5145 71.655 91.4791L67.2651 94.5849H68.6812C66.4154 97.8318 65.4242 102.349 65.849 107.996C67.2651 123.666 79.8683 141.877 94.1708 148.512C99.1271 150.771 103.517 151.477 107.199 150.63V151.901L111.73 148.795L111.872 148.654C115.979 145.689 118.244 140.042 117.536 132.278Z" fill="#9FFFF8"/>
<path opacity="0.2" d="M107.251 151.955C116.425 145.577 114.905 127.601 103.855 111.804C92.8057 96.007 76.4112 88.3707 67.2371 94.7481C58.063 101.125 59.5835 119.102 70.6331 134.899C81.6827 150.696 98.0772 158.332 107.251 151.955Z" fill="#42E8E0"/>
<path opacity="0.2" d="M98.1352 151.053C95.4446 151.053 92.3292 150.348 89.2138 148.795C76.469 142.866 65.1403 126.631 64.0074 112.655C63.441 105.879 65.2819 100.514 69.3886 97.6907C73.3536 94.8673 79.018 95.0084 85.2488 97.8319C97.9936 103.761 109.322 119.996 110.455 133.972C111.022 140.748 109.181 146.112 105.074 148.936C103.091 150.348 100.826 151.053 98.1352 151.053ZM76.1858 96.4202C73.6368 96.4202 71.5127 97.126 69.6718 98.3965C65.8483 101.079 64.0074 106.161 64.5739 112.655C65.7067 126.348 76.8938 142.301 89.497 148.23C95.4446 151.053 100.826 151.053 104.649 148.512C108.473 145.83 110.314 140.748 109.747 134.254C108.614 120.56 97.4271 104.608 84.8239 98.6789C81.8501 97.126 78.8764 96.4202 76.1858 96.4202Z" fill="#18B2A3"/>
</g>
<path d="M158.885 306.766C155.061 306.766 151.379 305.919 148.547 304.366L13.3108 226.58C10.6202 225.027 9.0625 222.91 9.0625 220.51C9.0625 217.686 11.1866 214.722 15.0101 212.604L272.88 64.233C279.96 60.1391 290.581 59.7156 296.67 63.2448L431.907 141.03C434.597 142.583 436.155 144.701 436.155 147.101C436.155 149.924 434.031 152.889 430.207 155.006L172.338 303.519C168.514 305.636 163.558 306.766 158.885 306.766ZM286.333 61.4096C281.801 61.4096 276.987 62.539 273.163 64.6566L15.2933 213.169C11.7531 215.287 9.62894 217.969 9.62894 220.51C9.62894 222.627 11.045 224.604 13.594 226.157L148.83 303.942C154.778 307.33 165.115 306.907 172.054 302.954L429.924 154.583C433.464 152.465 435.589 149.783 435.589 147.242C435.589 145.124 434.172 143.148 431.623 141.595L296.387 63.8095C293.696 62.1155 290.156 61.4096 286.333 61.4096Z" fill="#42E8E0"/>
<path d="M435.73 111.243L416.33 114.49L296.529 45.4572C290.581 41.9279 279.96 42.4926 273.022 46.4454L43.7567 178.441L9.4873 184.37V196.511C9.4873 198.769 10.7618 200.887 13.594 202.44L148.83 280.225C154.778 283.755 165.399 283.19 172.338 279.237L430.066 130.866C433.748 128.748 435.73 125.925 435.73 123.384V111.243Z" fill="url(#paint0_linear_1244_11394)"/>
<path d="M148.689 268.085L13.4526 190.158C7.50503 186.629 8.21307 180.7 15.1519 176.606L273.022 28.2343C279.961 24.2815 290.44 23.858 296.529 27.2461L431.765 105.032C437.713 108.561 437.005 114.49 430.066 118.584L172.196 267.096C165.257 271.049 154.778 271.473 148.689 268.085Z" fill="#24126A"/>
<path d="M430.066 118.584L172.196 267.097C165.257 271.049 154.778 271.473 148.689 268.085L13.4521 190.158C11.0448 188.746 9.77027 186.911 9.48705 185.076C9.06223 187.617 10.4783 190.017 13.4521 191.711L148.689 269.638C154.636 273.167 165.257 272.602 172.196 268.649L430.066 120.278C434.172 117.878 436.155 114.772 435.73 111.949C435.305 114.208 433.464 116.749 430.066 118.584Z" fill="white"/>
<path opacity="0.51" d="M148.972 264.979L18.5505 189.876C12.7445 186.488 13.4525 180.7 20.2498 176.747L273.305 31.1989C279.961 27.3873 290.156 26.9638 295.962 30.2107L426.384 105.314C432.19 108.702 431.482 114.49 424.685 118.443L171.63 264.132C164.974 267.944 154.778 268.367 148.972 264.979Z" fill="#453C9E"/>
<path opacity="0.5" d="M148.972 261.732L18.5505 186.629C12.7445 183.241 13.4525 177.453 20.2498 173.5L273.305 27.952C279.961 24.1403 290.156 23.7168 295.962 26.9638L426.384 102.067C432.19 105.455 431.482 111.243 424.685 115.196L171.63 260.744C164.974 264.555 154.778 264.979 148.972 261.732Z" fill="url(#paint1_radial_1244_11394)"/>
<path opacity="0.8" d="M158.884 264.273C155.061 264.273 151.521 263.567 148.83 262.014L18.4084 186.911C15.7178 185.358 14.3018 183.241 14.3018 180.841C14.3018 178.017 16.4259 175.194 20.1077 173.076L273.163 27.5284C279.96 23.5756 290.298 23.1521 296.245 26.5402L426.667 101.643C429.357 103.196 430.774 105.314 430.774 107.714C430.774 110.537 428.649 113.361 424.968 115.478L171.912 261.026C168.231 263.285 163.416 264.273 158.884 264.273ZM149.255 261.308C154.919 264.555 164.974 264.132 171.488 260.32L424.543 114.772C427.941 112.796 429.924 110.255 429.924 107.714C429.924 105.737 428.649 103.761 426.242 102.349L295.82 27.2461C290.156 23.9992 280.102 24.4227 273.588 28.2343L20.3909 173.923C16.9923 175.9 15.0098 178.441 15.0098 180.982C15.0098 182.958 16.2843 184.935 18.6916 186.346L149.255 261.308Z" fill="url(#paint2_linear_1244_11394)"/>
<path d="M158.884 264.273C155.203 264.273 151.521 263.567 148.83 262.014L18.4084 186.911C15.7178 185.358 14.3018 183.241 14.3018 180.982C14.3018 178.158 16.4259 175.476 19.9661 173.359L273.163 27.6696C279.96 23.7168 290.298 23.2933 296.103 26.6814L426.525 101.785C429.216 103.338 430.632 105.455 430.632 107.714C430.632 110.537 428.508 113.22 424.968 115.337L171.771 261.026C168.089 263.144 163.416 264.273 158.884 264.273ZM149.113 261.45C154.778 264.697 164.832 264.273 171.488 260.461L424.684 114.914C428.083 112.937 430.066 110.396 430.066 107.714C430.066 105.596 428.791 103.761 426.242 102.349L295.82 27.2461C290.156 23.9992 280.102 24.4227 273.446 28.2343L20.3909 173.782C16.9923 175.759 15.0098 178.3 15.0098 180.982C15.0098 183.099 16.2843 184.935 18.8332 186.346L149.113 261.45Z" fill="#42E8E0"/>
<path d="M209.014 82.303C208.447 82.303 207.739 82.1618 207.031 81.7383L193.578 73.9739L193.861 73.4092L207.314 81.1736C208.305 81.7383 209.155 81.8795 209.863 81.456C210.571 81.0324 210.854 80.1854 210.854 79.056V75.8091C210.854 74.3974 211.279 73.4092 212.271 72.9857C213.12 72.421 214.253 72.5622 215.528 73.268L218.36 74.8209L218.077 75.3856L215.244 73.8327C214.253 73.268 213.403 73.1268 212.695 73.5504C211.987 73.9739 211.704 74.8209 211.704 75.9503V79.056C211.704 80.4678 211.279 81.456 210.288 82.0206C209.863 82.1618 209.438 82.303 209.014 82.303Z" fill="#42E8E0"/>
<path d="M203.774 85.2676C203.208 85.2676 202.5 85.1264 201.792 84.7029L188.339 76.9385L188.622 76.3738L202.075 84.1382C203.066 84.7029 203.916 84.8441 204.624 84.4206C205.332 83.997 205.615 83.15 205.615 82.0206V78.7737C205.615 77.362 206.04 76.3738 207.031 75.8091C207.881 75.2444 209.014 75.3856 210.288 76.0915L213.12 77.6443L212.837 78.209L210.005 76.6561C209.014 76.0914 208.164 75.9503 207.456 76.3738C206.748 76.7973 206.465 77.6443 206.465 78.7737V82.0206C206.465 83.4324 206.04 84.4206 205.049 84.9852C204.624 85.1264 204.199 85.2676 203.774 85.2676Z" fill="#42E8E0"/>
<path d="M198.535 88.2322C197.969 88.2322 197.261 88.091 196.552 87.6675L183.1 79.9031L183.383 79.3384L196.836 87.1028C197.827 87.6675 198.677 87.8087 199.385 87.3852C200.093 86.9617 200.376 86.1146 200.376 84.9853V81.7383C200.376 80.3266 200.801 79.3384 201.792 78.7737C202.642 78.209 203.775 78.3502 205.049 79.0561L207.881 80.6089L207.598 81.1736L204.766 79.6207C203.775 79.0561 202.925 78.9149 202.217 79.3384C201.509 79.7619 201.226 80.6089 201.226 81.7383V84.9853C201.226 86.397 200.801 87.3852 199.809 87.8087C199.385 88.091 198.96 88.2322 198.535 88.2322Z" fill="#42E8E0"/>
<path d="M193.295 91.1968C192.728 91.1968 192.02 91.0556 191.312 90.6321L177.859 82.8677L178.143 82.303L191.595 90.0674C192.587 90.6321 193.436 90.7733 194.144 90.3498C194.852 89.9263 195.136 89.0792 195.136 87.9499V84.7029C195.136 83.2912 195.561 82.303 196.552 81.7383C197.401 81.1736 198.534 81.3148 199.809 82.0206L202.641 83.5735L202.358 84.1382L199.526 82.5853C198.534 82.0206 197.685 81.8795 196.977 82.303C196.269 82.7265 195.985 83.5735 195.985 84.7029V87.9499C195.985 89.3616 195.561 90.3498 194.569 90.9145C194.144 91.0556 193.72 91.1968 193.295 91.1968Z" fill="#42E8E0"/>
<path d="M188.056 94.1614C187.489 94.1614 186.781 94.0202 186.073 93.5967L172.62 85.8323L172.903 85.2676L186.356 93.032C187.347 93.5967 188.197 93.7379 188.905 93.3144C189.613 92.8909 189.896 92.0438 189.896 90.9145V87.6675C189.896 86.2558 190.321 85.2676 191.313 84.7029C192.162 84.1382 193.295 84.2794 194.57 84.9852L197.402 86.5381L197.118 87.1028L194.286 85.5499C193.295 84.9852 192.445 84.8441 191.737 85.2676C191.029 85.6911 190.746 86.5381 190.746 87.6675V90.9145C190.746 92.3262 190.321 93.3144 189.33 93.8791C188.905 94.0202 188.622 94.1614 188.056 94.1614Z" fill="#42E8E0"/>
<path d="M182.958 97.126C182.391 97.126 181.683 96.9848 180.975 96.5613L167.522 88.7969L167.806 88.2322L181.259 95.9966C182.25 96.5613 183.099 96.7025 183.807 96.279C184.516 95.8555 184.799 95.0084 184.799 93.8791V90.6321C184.799 89.2204 185.224 88.2322 186.215 87.8087C187.064 87.244 188.197 87.3852 189.472 88.091L192.304 89.6439L192.021 90.2086L189.189 88.6557C188.197 88.091 187.348 87.9499 186.64 88.3734C185.932 88.7969 185.648 89.6439 185.648 90.7733V94.0202C185.648 95.4319 185.224 96.4201 184.232 96.9848C183.807 97.126 183.383 97.126 182.958 97.126Z" fill="#42E8E0"/>
<path d="M177.719 100.232C177.152 100.232 176.444 100.091 175.736 99.6671L162.283 91.9026L162.566 91.338L176.019 99.1024C177.011 99.6671 177.86 99.8083 178.568 99.3847C179.276 98.9612 179.56 98.1142 179.56 96.9848V93.7379C179.56 92.3262 179.984 91.338 180.976 90.7733C181.825 90.2086 182.958 90.3498 184.233 91.0556L187.065 92.6085L186.782 93.1732L183.949 91.6203C182.958 91.0556 182.108 90.9144 181.4 91.338C180.692 91.7615 180.409 92.6085 180.409 93.7379V96.9848C180.409 98.3965 179.984 99.3847 178.993 99.9494C178.568 100.091 178.143 100.232 177.719 100.232Z" fill="#42E8E0"/>
<path d="M172.478 103.196C171.912 103.196 171.204 103.055 170.496 102.632L157.043 94.8673L157.326 94.3026L170.779 102.067C171.77 102.632 172.62 102.773 173.328 102.349C174.036 101.926 174.319 101.079 174.319 99.9494V96.7025C174.319 95.2908 174.744 94.3026 175.735 93.7379C176.585 93.1732 177.718 93.3144 178.992 94.0202L181.825 95.5731L181.541 96.1378L178.709 94.5849C177.718 94.0202 176.868 93.8791 176.16 94.3026C175.452 94.7261 175.169 95.5731 175.169 96.7025V99.9494C175.169 101.361 174.744 102.349 173.753 102.914C173.328 103.055 172.903 103.196 172.478 103.196Z" fill="#42E8E0"/>
<path d="M167.239 106.161C166.673 106.161 165.965 106.02 165.257 105.596L151.804 97.8319L152.087 97.2672L165.54 105.032C166.531 105.596 167.381 105.737 168.089 105.314C168.797 104.89 169.08 104.043 169.08 102.914V99.6671C169.08 98.2554 169.505 97.2672 170.496 96.7025C171.346 96.1378 172.479 96.279 173.753 96.9848L176.585 98.5377L176.302 99.1024L173.47 97.5495C172.479 96.9848 171.629 96.8437 170.921 97.2672C170.213 97.6907 169.93 98.5377 169.93 99.6671V102.914C169.93 104.326 169.505 105.314 168.514 105.879C168.089 106.02 167.664 106.161 167.239 106.161Z" fill="#42E8E0"/>
<path d="M162 109.126C161.433 109.126 160.725 108.984 160.017 108.561L146.564 100.796L146.848 100.232L160.301 107.996C161.292 108.561 162.141 108.702 162.849 108.279C163.558 107.855 163.841 107.008 163.841 105.879V102.632C163.841 101.22 164.266 100.232 165.257 99.8083C166.106 99.2436 167.239 99.3847 168.514 100.091L171.346 101.643L171.063 102.208L168.231 100.655C167.239 100.091 166.39 99.9494 165.682 100.373C164.974 100.796 164.69 101.643 164.69 102.773V105.879C164.69 107.29 164.266 108.279 163.274 108.843C162.849 108.984 162.566 109.126 162 109.126Z" fill="#42E8E0"/>
<path d="M156.902 112.09C156.336 112.09 155.628 111.949 154.92 111.526L141.467 103.761L141.75 103.196L155.203 110.961C156.194 111.526 157.044 111.667 157.752 111.243C158.46 110.82 158.743 109.973 158.743 108.843V105.596C158.743 104.185 159.168 103.196 160.159 102.632C161.009 102.067 162.142 102.208 163.416 102.914L166.248 104.467L165.965 105.032L163.133 103.479C162.142 102.914 161.292 102.773 160.584 103.196C159.876 103.62 159.593 104.467 159.593 105.596V108.843C159.593 110.255 159.168 111.243 158.177 111.808C157.752 111.949 157.327 112.09 156.902 112.09Z" fill="#42E8E0"/>
<path d="M151.662 115.055C151.096 115.055 150.387 114.914 149.679 114.49L136.227 106.726L136.51 106.161L149.963 113.925C150.954 114.49 151.804 114.631 152.512 114.208C153.22 113.784 153.503 112.937 153.503 111.808V108.702C153.503 107.29 153.928 106.302 154.919 105.737C155.769 105.173 156.901 105.314 158.176 106.02L161.008 107.573L160.725 108.137L157.893 106.585C156.901 106.02 156.052 105.879 155.344 106.302C154.636 106.726 154.353 107.573 154.353 108.702V111.949C154.353 113.361 153.928 114.349 152.936 114.772C152.512 115.055 152.087 115.055 151.662 115.055Z" fill="#42E8E0"/>
<path d="M146.423 118.161C145.856 118.161 145.148 118.019 144.44 117.596L130.987 109.831L131.271 109.267L144.723 117.031C145.715 117.596 146.564 117.737 147.272 117.314C147.98 116.89 148.264 116.043 148.264 114.914V111.667C148.264 110.255 148.688 109.267 149.68 108.702C150.529 108.137 151.662 108.279 152.937 108.984L155.769 110.537L155.486 111.102L152.653 109.549C151.662 108.984 150.813 108.843 150.105 109.267C149.396 109.69 149.113 110.537 149.113 111.667V114.914C149.113 116.325 148.688 117.314 147.697 117.878C147.272 118.019 146.848 118.161 146.423 118.161Z" fill="#42E8E0"/>
<path d="M141.183 121.125C140.617 121.125 139.909 120.984 139.201 120.56L125.748 112.796L126.031 112.231L139.484 119.996C140.475 120.56 141.325 120.702 142.033 120.278C142.741 119.855 143.024 119.008 143.024 117.878V114.631C143.024 113.22 143.449 112.231 144.44 111.667C145.29 111.102 146.423 111.243 147.697 111.949L150.53 113.502L150.246 114.067L147.414 112.514C146.423 111.949 145.573 111.808 144.865 112.231C144.157 112.655 143.874 113.502 143.874 114.631V117.878C143.874 119.29 143.449 120.278 142.458 120.843C142.033 120.984 141.608 121.125 141.183 121.125Z" fill="#42E8E0"/>
<path d="M135.943 124.09C135.377 124.09 134.669 123.949 133.961 123.525L120.649 115.761L120.933 115.196L134.386 122.96C135.377 123.525 136.226 123.666 136.934 123.243C137.643 122.819 137.926 121.972 137.926 120.843V117.596C137.926 116.184 138.351 115.196 139.342 114.772C140.191 114.208 141.324 114.349 142.599 115.055L145.431 116.608L145.148 117.172L142.316 115.619C141.324 115.055 140.475 114.914 139.767 115.337C139.059 115.761 138.775 116.608 138.775 117.737V120.984C138.775 122.396 138.351 123.384 137.359 123.949C136.793 123.949 136.51 124.09 135.943 124.09Z" fill="#42E8E0"/>
<path d="M130.846 127.054C130.279 127.054 129.571 126.913 128.863 126.49L115.41 118.725L115.693 118.161L129.146 125.925C130.137 126.49 130.987 126.631 131.695 126.207C132.403 125.784 132.686 124.937 132.686 123.807V120.56C132.686 119.149 133.111 118.161 134.103 117.596C134.952 117.031 136.085 117.172 137.36 117.878L140.192 119.431L139.909 119.996L137.076 118.443C136.085 117.878 135.235 117.737 134.527 118.161C133.819 118.584 133.536 119.431 133.536 120.56V123.807C133.536 125.219 133.111 126.207 132.12 126.772C131.695 126.913 131.27 127.054 130.846 127.054Z" fill="#42E8E0"/>
<path d="M125.606 130.019C125.04 130.019 124.332 129.878 123.624 129.454L110.171 121.69L110.454 121.125L123.907 128.89C124.898 129.454 125.748 129.595 126.456 129.172C127.164 128.748 127.447 127.901 127.447 126.772V123.525C127.447 122.113 127.872 121.125 128.863 120.56C129.713 119.996 130.846 120.137 132.12 120.843L134.952 122.396L134.528 123.102L131.695 121.549C130.704 120.984 129.855 120.843 129.146 121.266C128.438 121.69 128.155 122.537 128.155 123.666V126.913C128.155 128.325 127.73 129.313 126.739 129.737C126.456 130.019 126.031 130.019 125.606 130.019Z" fill="#42E8E0"/>
<path d="M120.367 132.984C119.801 132.984 119.093 132.842 118.385 132.419L104.932 124.654L105.215 124.09L118.668 131.854C119.659 132.419 120.509 132.56 121.217 132.137C121.925 131.713 122.208 130.866 122.208 129.737V126.49C122.208 125.078 122.633 124.09 123.624 123.525C124.474 122.96 125.607 123.102 126.881 123.807L129.713 125.36L129.43 125.925L126.598 124.372C125.607 123.807 124.757 123.666 124.049 124.09C123.341 124.513 123.058 125.36 123.058 126.49V129.878C123.058 131.29 122.633 132.278 121.642 132.842C121.217 132.984 120.792 132.984 120.367 132.984Z" fill="#42E8E0"/>
<path d="M115.127 136.089C114.56 136.089 113.852 135.948 113.144 135.525L99.6914 127.76L99.9746 127.196L113.427 134.96C114.419 135.525 115.268 135.666 115.976 135.242C116.684 134.819 116.968 133.972 116.968 132.842V129.595C116.968 128.184 117.392 127.196 118.384 126.631C119.233 126.066 120.366 126.207 121.641 126.913L124.473 128.466L124.19 129.031L121.358 127.478C120.366 126.913 119.517 126.772 118.809 127.196C118.101 127.619 117.817 128.466 117.817 129.595V132.842C117.817 134.254 117.392 135.242 116.401 135.807C115.976 135.948 115.552 136.089 115.127 136.089Z" fill="#42E8E0"/>
<path d="M109.888 139.054C109.321 139.054 108.613 138.913 107.905 138.489L94.4521 130.725L94.7354 130.16L108.188 137.925C109.179 138.489 110.029 138.63 110.737 138.207C111.445 137.783 111.728 136.936 111.728 135.807V132.56C111.728 131.148 112.153 130.16 113.145 129.737C113.994 129.172 115.127 129.313 116.402 130.019L119.234 131.572L118.95 132.137L116.118 130.584C115.127 130.019 114.277 129.878 113.569 130.301C112.861 130.725 112.578 131.572 112.578 132.701V135.948C112.578 137.36 112.153 138.348 111.162 138.913C110.737 138.913 110.454 139.054 109.888 139.054Z" fill="#42E8E0"/>
<path d="M230.255 82.4442C229.831 82.4442 229.406 82.303 228.981 82.1618C228.131 81.5971 227.565 80.6089 227.565 79.1972V75.9503C227.565 74.8209 227.14 73.9739 226.574 73.5504C225.865 73.1268 225.016 73.268 224.025 73.8327L221.192 75.3856L220.909 74.8209L223.741 73.268C224.874 72.5622 226.007 72.421 226.998 72.9857C227.848 73.5504 228.414 74.5386 228.414 75.8091V79.0561C228.414 80.1854 228.839 81.0325 229.406 81.456C230.114 81.8795 230.963 81.7383 231.955 81.1736L310.831 35.5752L311.114 36.1399L232.238 81.8795C231.53 82.303 230.963 82.4442 230.255 82.4442Z" fill="#27E574"/>
<path d="M235.495 85.4088C235.07 85.4088 234.645 85.2676 234.22 85.1264C233.37 84.5617 232.804 83.5735 232.804 82.1618V79.056C232.804 77.9267 232.379 77.0796 231.813 76.6561C231.105 76.2326 230.255 76.3738 229.264 76.9385L226.432 78.4914L226.148 77.9267L228.981 76.3738C230.113 75.6679 231.246 75.5268 232.238 76.0914C233.087 76.6561 233.654 77.6443 233.654 79.056V82.303C233.654 83.4324 234.079 84.2794 234.645 84.7029C235.353 85.1264 236.203 84.9853 237.194 84.4206L316.07 38.8222L316.353 39.3868L237.477 84.9853C236.769 85.2676 236.203 85.4088 235.495 85.4088Z" fill="#27E574"/>
<path d="M240.735 88.5145C240.31 88.5145 239.885 88.3734 239.46 88.2322C238.611 87.6675 238.044 86.6793 238.044 85.4088V82.1618C238.044 81.0325 237.619 80.1854 237.053 79.7619C236.345 79.3384 235.495 79.4796 234.504 80.0443L231.672 81.5971L231.389 81.0325L234.221 79.4796C235.354 78.7737 236.487 78.6325 237.478 79.1972C238.328 79.7619 238.894 80.7501 238.894 82.1618V85.4088C238.894 86.5381 239.319 87.3852 239.885 87.8087C240.593 88.2322 241.443 88.091 242.434 87.5263L321.31 41.9279L321.594 42.4926L242.717 88.091C242.009 88.2322 241.301 88.5145 240.735 88.5145Z" fill="#27E574"/>
<path d="M245.974 91.4791C245.549 91.4791 245.124 91.338 244.7 91.1968C243.85 90.6321 243.284 89.6439 243.284 88.2322V84.9852C243.284 83.8559 242.859 83.0088 242.292 82.5853C241.584 82.1618 240.735 82.303 239.743 82.8677L236.911 84.4206L236.628 83.8559L239.46 82.303C240.593 81.5971 241.726 81.456 242.717 82.0206C243.567 82.5853 244.133 83.5735 244.133 84.9852V88.2322C244.133 89.3616 244.558 90.2086 245.124 90.6321C245.833 91.0556 246.682 90.9145 247.673 90.3498L326.55 44.7514L326.833 45.3161L247.957 90.9145C247.249 91.1968 246.541 91.4791 245.974 91.4791Z" fill="#27E574"/>
<path d="M251.213 94.4437C250.789 94.4437 250.364 94.3026 249.939 94.1614C249.089 93.5967 248.523 92.6085 248.523 91.1968V87.9498C248.523 86.8205 248.098 85.9734 247.532 85.5499C246.824 85.1264 245.974 85.2676 244.983 85.8323L242.15 87.3852L241.867 86.8205L244.699 85.2676C245.832 84.5617 246.965 84.4206 247.956 84.9852C248.806 85.5499 249.372 86.5381 249.372 87.9498V91.1968C249.372 92.3262 249.797 93.1732 250.364 93.5967C251.072 94.0202 251.921 93.8791 252.913 93.3144L331.789 47.716L332.072 48.2807L253.196 93.8791C252.488 94.3026 251.78 94.4437 251.213 94.4437Z" fill="#27E574"/>
<path d="M256.311 97.4083C255.886 97.4083 255.461 97.2672 255.037 97.126C254.187 96.5613 253.62 95.5731 253.62 94.1614V90.9145C253.62 89.7851 253.196 88.9381 252.629 88.5145C251.921 88.091 251.072 88.2322 250.08 88.7969L247.248 90.3498L246.965 89.7851L249.797 88.2322C250.93 87.5263 252.063 87.3852 253.054 87.9499C253.904 88.5145 254.47 89.5028 254.47 90.7733V94.0202C254.47 95.1496 254.895 95.9966 255.461 96.4202C256.169 96.8437 257.019 96.7025 258.01 96.1378L336.887 50.5394L337.17 51.1041L258.294 96.7025C257.586 97.2672 257.019 97.4083 256.311 97.4083Z" fill="#27E574"/>
<path d="M261.551 100.373C261.126 100.373 260.702 100.232 260.277 100.091C259.427 99.5259 258.861 98.5377 258.861 97.126V93.879C258.861 92.7497 258.436 91.9027 257.869 91.4791C257.161 91.0556 256.312 91.1968 255.32 91.7615L252.488 93.3144L252.205 92.7497L255.037 91.1968C256.17 90.4909 257.303 90.3498 258.294 90.9144C259.144 91.4791 259.71 92.4673 259.71 93.879V97.126C259.71 98.2554 260.135 99.1024 260.702 99.5259C261.41 99.9494 262.259 99.8083 263.251 99.2436L342.127 53.6452L342.41 54.2099L263.534 99.8082C262.826 100.232 262.259 100.373 261.551 100.373Z" fill="#27E574"/>
<path d="M266.791 103.338C266.366 103.338 265.941 103.196 265.516 103.055C264.666 102.491 264.1 101.502 264.1 100.232V96.9848C264.1 95.8554 263.675 95.0084 263.109 94.5849C262.401 94.1614 261.551 94.3026 260.56 94.8672L257.728 96.4201L257.444 95.8555L260.277 94.3026C261.409 93.5967 262.542 93.4555 263.534 94.0202C264.383 94.5849 264.95 95.5731 264.95 96.9848V100.232C264.95 101.361 265.374 102.208 265.941 102.632C266.649 103.055 267.499 102.914 268.49 102.349L347.366 56.7509L347.649 57.3156L268.773 102.914C268.065 103.196 267.357 103.338 266.791 103.338Z" fill="#27E574"/>
<path d="M272.03 106.443C271.605 106.443 271.18 106.302 270.755 106.161C269.906 105.596 269.339 104.608 269.339 103.196V99.9494C269.339 98.8201 268.914 97.973 268.348 97.5495C267.64 97.126 266.79 97.2672 265.799 97.8319L262.967 99.3848L262.684 98.8201L265.516 97.2672C266.649 96.5613 267.782 96.4201 268.773 96.9848C269.622 97.5495 270.189 98.5377 270.189 99.9494V103.196C270.189 104.326 270.614 105.173 271.18 105.596C271.888 106.02 272.738 105.879 273.729 105.314L352.605 59.5744L352.889 60.1391L274.012 105.737C273.304 106.161 272.596 106.443 272.03 106.443Z" fill="#27E574"/>
<path d="M277.27 109.408C276.845 109.408 276.42 109.267 275.996 109.126C275.146 108.561 274.579 107.573 274.579 106.161V102.914C274.579 101.785 274.155 100.938 273.588 100.514C272.88 100.091 272.03 100.232 271.039 100.796L268.207 102.349L267.924 101.785L270.756 100.232C271.889 99.5259 273.022 99.3848 274.013 99.9494C274.863 100.514 275.429 101.502 275.429 102.914V106.161C275.429 107.29 275.854 108.137 276.42 108.561C277.128 108.984 277.978 108.843 278.969 108.279L357.846 62.6802L358.129 63.2448L279.253 108.843C278.545 109.126 277.836 109.408 277.27 109.408Z" fill="#27E574"/>
<path d="M282.368 112.373C281.943 112.373 281.518 112.231 281.093 112.09C280.244 111.525 279.677 110.537 279.677 109.126V105.879C279.677 104.749 279.252 103.902 278.686 103.479C277.978 103.055 277.128 103.196 276.137 103.761L273.305 105.314L273.021 104.749L275.854 103.196C276.987 102.491 278.119 102.349 279.111 102.914C279.96 103.479 280.527 104.467 280.527 105.879V109.126C280.527 110.255 280.952 111.102 281.518 111.525C282.226 111.949 283.076 111.808 284.067 111.243L362.943 65.6447L363.226 66.2094L284.35 111.808C283.642 112.231 283.076 112.373 282.368 112.373Z" fill="#27E574"/>
<path d="M287.607 115.337C287.182 115.337 286.757 115.196 286.332 115.055C285.483 114.49 284.916 113.502 284.916 112.231V108.984C284.916 107.855 284.492 107.008 283.925 106.584C283.217 106.161 282.367 106.302 281.376 106.867L278.544 108.42L278.261 107.855L281.093 106.302C282.226 105.596 283.359 105.455 284.35 106.02C285.2 106.584 285.766 107.573 285.766 108.984V112.231C285.766 113.361 286.191 114.208 286.757 114.631C287.465 115.055 288.315 114.914 289.306 114.349L368.182 68.6094L368.466 69.174L289.589 114.772C288.881 115.196 288.315 115.337 287.607 115.337Z" fill="#27E574"/>
<path d="M292.846 118.302C292.421 118.302 291.997 118.161 291.572 118.019C290.722 117.455 290.156 116.467 290.156 115.055V111.808C290.156 110.678 289.731 109.831 289.164 109.408C288.456 108.984 287.607 109.126 286.615 109.69L283.783 111.243L283.5 110.678L286.332 109.126C287.465 108.42 288.598 108.279 289.589 108.843C290.439 109.408 291.005 110.396 291.005 111.808V115.055C291.005 116.184 291.43 117.031 291.997 117.455C292.705 117.878 293.554 117.737 294.545 117.172L373.422 71.574L373.705 72.1386L294.829 117.737C294.121 118.161 293.413 118.302 292.846 118.302Z" fill="#27E574"/>
<path d="M298.086 121.266C297.662 121.266 297.237 121.125 296.812 120.984C295.962 120.419 295.396 119.431 295.396 118.019V114.772C295.396 113.643 294.971 112.796 294.405 112.373C293.697 111.949 292.847 112.09 291.856 112.655L289.023 114.208L288.74 113.643L291.572 112.09C292.705 111.384 293.838 111.243 294.829 111.808C295.821 112.373 296.246 113.361 296.246 114.772V118.019C296.246 119.149 296.67 119.996 297.237 120.419C297.945 120.843 298.794 120.702 299.786 120.137L378.662 74.5386L378.945 75.1032L300.069 120.702C299.361 121.125 298.653 121.266 298.086 121.266Z" fill="#27E574"/>
<path d="M303.326 124.372C302.901 124.372 302.476 124.231 302.051 124.09C301.202 123.525 300.635 122.537 300.635 121.125V117.878C300.635 116.749 300.21 115.902 299.644 115.478C298.936 115.055 298.086 115.196 297.095 115.761L294.263 117.314L293.979 116.749L296.812 115.196C297.945 114.49 299.077 114.349 300.069 114.914C300.918 115.478 301.485 116.467 301.485 117.737V120.984C301.485 122.113 301.91 122.96 302.476 123.384C303.184 123.807 304.034 123.666 305.025 123.102L383.901 77.5032L384.184 78.0679L305.308 123.666C304.6 124.09 303.892 124.372 303.326 124.372Z" fill="#27E574"/>
<path d="M308.423 127.337C307.999 127.337 307.574 127.196 307.149 127.054C306.299 126.49 305.733 125.501 305.733 124.09V120.843C305.733 119.713 305.308 118.866 304.742 118.443C304.033 118.019 303.184 118.161 302.193 118.725L299.36 120.278L299.077 119.713L301.909 118.161C303.042 117.455 304.175 117.314 305.166 117.878C306.016 118.443 306.582 119.431 306.582 120.843V124.09C306.582 125.219 307.007 126.066 307.574 126.49C308.282 126.913 309.131 126.772 310.123 126.207L388.999 80.6089L389.282 81.1736L310.406 126.772C309.698 127.054 309.131 127.337 308.423 127.337Z" fill="#27E574"/>
<path d="M313.663 130.301C313.238 130.301 312.813 130.16 312.388 130.019C311.538 129.454 310.972 128.466 310.972 127.196V123.949C310.972 122.819 310.547 121.972 309.981 121.549C309.273 121.125 308.423 121.266 307.432 121.831L304.6 123.384L304.458 122.819L307.29 121.266C308.423 120.56 309.556 120.419 310.547 120.984C311.397 121.549 311.963 122.537 311.963 123.949V127.054C311.963 128.184 312.388 129.031 312.955 129.454C313.663 129.878 314.512 129.737 315.504 129.172L394.38 83.5735L394.663 84.1382L315.787 129.737C314.937 130.16 314.371 130.301 313.663 130.301Z" fill="#27E574"/>
<path d="M318.903 133.266C318.478 133.266 318.053 133.125 317.628 132.984C316.779 132.419 316.212 131.431 316.212 130.019V126.772C316.212 125.643 315.787 124.796 315.221 124.372C314.513 123.949 313.663 124.09 312.672 124.654L309.84 126.207L309.557 125.643L312.389 124.09C313.522 123.384 314.655 123.243 315.646 123.807C316.495 124.372 317.062 125.36 317.062 126.772V130.019C317.062 131.148 317.487 131.995 318.053 132.419C318.761 132.842 319.611 132.701 320.602 132.137L399.478 86.5381L399.761 87.1028L320.885 132.701C320.177 133.125 319.469 133.266 318.903 133.266Z" fill="#27E574"/>
<path d="M324.142 136.231C323.717 136.231 323.292 136.089 322.868 135.948C322.018 135.383 321.452 134.395 321.452 132.984V129.878C321.452 128.748 321.027 127.901 320.46 127.478C319.752 127.054 318.903 127.196 317.911 127.76L315.079 129.313L314.796 128.748L317.628 127.196C318.761 126.49 319.894 126.349 320.885 126.913C321.735 127.478 322.301 128.466 322.301 129.878V133.125C322.301 134.254 322.726 135.101 323.292 135.525C324 135.948 324.85 135.807 325.841 135.242L404.718 89.6439L405.001 90.2086L326.125 135.807C325.417 136.089 324.709 136.231 324.142 136.231Z" fill="#27E574"/>
<path d="M329.381 139.195C328.957 139.195 328.532 139.054 328.107 138.913C327.257 138.348 326.691 137.36 326.691 135.948V132.701C326.691 131.572 326.266 130.725 325.7 130.301C324.991 129.878 324.142 130.019 323.151 130.584L320.318 132.137L320.035 131.572L322.867 130.019C324 129.313 325.133 129.172 326.124 129.737C326.974 130.301 327.54 131.29 327.54 132.56V135.807C327.54 136.936 327.965 137.783 328.532 138.207C329.24 138.63 330.089 138.489 331.081 137.925L409.957 92.3262L410.24 92.8909L331.364 138.63C330.656 139.054 329.948 139.195 329.381 139.195Z" fill="#27E574"/>
<path d="M322.584 133.266V145.124L219.634 204.416L116.685 145.124V133.266H322.584Z" fill="url(#paint3_linear_1244_11394)"/>
<path d="M219.634 192.558L116.685 133.266L219.634 73.9739L322.584 133.266L219.634 192.558Z" fill="#BCBEFF"/>
<path d="M219.634 191.146L117.959 132.56L116.685 133.266L219.634 192.558L322.584 133.266L321.451 132.56L219.634 191.146Z" fill="white"/>
<path d="M219.634 178.864L140.475 133.266L219.634 87.6675L298.935 133.266L219.634 178.864Z" fill="#0F054C"/>
<path opacity="0.5" d="M219.634 178.864L140.475 133.266L219.634 87.6675L298.935 133.266L219.634 178.864Z" fill="url(#paint4_linear_1244_11394)"/>
<path opacity="0.5" d="M219.634 76.2326L298.935 121.831V133.266L219.634 87.6675V76.2326Z" fill="url(#paint5_linear_1244_11394)"/>
<path opacity="0.5" d="M219.634 87.6675L140.475 133.266V121.831L219.634 76.2326V87.6675Z" fill="url(#paint6_linear_1244_11394)"/>
<path opacity="0.5" d="M219.634 167.288L140.475 121.831L219.634 76.2326L298.935 121.831L219.634 167.288Z" fill="url(#paint7_linear_1244_11394)"/>
<path opacity="0.7" d="M219.634 153.877L163.84 121.831L219.634 89.6439L275.569 121.831L219.634 153.877Z" fill="#42E8E0"/>
<path opacity="0.5" d="M219.634 140.042L188.056 121.831L219.634 103.62L251.355 121.831L219.634 140.042Z" fill="#42E8E0"/>
<path opacity="0.5" d="M219.634 105.173L249.797 122.678L251.355 121.831L219.634 103.62L188.056 121.831L189.472 122.678L219.634 105.173Z" fill="#42E8E0"/>
<path opacity="0.5" d="M219.634 167.288V178.864L298.935 133.266V121.831L219.634 167.288Z" fill="url(#paint8_linear_1244_11394)"/>
<path opacity="0.5" d="M140.475 121.831V133.266L219.634 178.864V167.288L140.475 121.831Z" fill="url(#paint9_linear_1244_11394)"/>
<path opacity="0.8" d="M219.634 166.159L141.607 121.125L140.475 121.831L219.634 167.288L298.935 121.831L297.802 121.125L219.634 166.159Z" fill="#42E8E0"/>
<path d="M245.408 218.392L231.955 210.628C229.689 209.216 227.706 205.969 227.706 203.287V200.04C227.706 197.499 226.007 194.534 223.741 193.264L220.909 191.711L221.192 191.146L224.025 192.699C226.29 194.111 228.273 197.358 228.273 200.04V203.287C228.273 205.828 229.972 208.793 232.238 210.063L245.691 217.828L245.408 218.392Z" fill="#27E574"/>
<path d="M250.647 215.428L237.194 207.663C234.928 206.393 232.946 203.005 232.946 200.322V197.075C232.946 194.534 231.246 191.57 228.981 190.299L226.148 188.746L226.432 188.182L229.264 189.735C231.53 191.005 233.512 194.393 233.512 197.075V200.322C233.512 202.863 235.211 205.828 237.477 207.099L250.93 214.863L250.647 215.428Z" fill="#27E574"/>
<path d="M255.745 212.463L242.293 204.699C240.027 203.287 238.044 200.04 238.044 197.358V194.111C238.044 191.57 236.345 188.605 234.079 187.335L231.247 185.782L231.53 185.217L234.362 186.77C236.628 188.182 238.611 191.429 238.611 194.111V197.358C238.611 199.899 240.31 202.863 242.576 204.134L256.029 211.898L255.745 212.463Z" fill="#27E574"/>
<path d="M260.985 209.357L247.532 201.593C245.266 200.322 243.284 196.934 243.284 194.252V191.005C243.284 188.464 241.584 185.499 239.319 184.229L236.486 182.676L236.77 182.111L239.602 183.664C241.867 185.076 243.85 188.323 243.85 191.005V194.252C243.85 196.793 245.549 199.758 247.815 201.028L261.268 208.793L260.985 209.357Z" fill="#27E574"/>
<path d="M266.224 206.393L252.771 198.628C250.505 197.358 248.523 193.97 248.523 191.287V188.04C248.523 185.499 246.824 182.535 244.558 181.264L241.726 179.711L242.009 179.147L244.841 180.7C247.107 181.97 249.089 185.358 249.089 188.04V191.287C249.089 193.828 250.789 196.793 253.054 198.064L266.507 205.828L266.224 206.393Z" fill="#27E574"/>
<path d="M271.463 203.428L258.01 195.664C255.745 194.252 253.762 191.005 253.762 188.323V185.076C253.762 182.535 252.063 179.57 249.797 178.3L246.965 176.747L247.248 176.182L250.08 177.735C252.346 179.147 254.329 182.394 254.329 185.076V188.323C254.329 190.864 256.028 193.828 258.294 195.099L271.746 202.863L271.463 203.428Z" fill="#27E574"/>
<path d="M276.703 200.464L263.251 192.699C260.985 191.429 259.002 188.04 259.002 185.358V182.111C259.002 179.57 257.303 176.606 255.037 175.335L252.205 173.782L252.488 173.217L255.32 174.77C257.586 176.041 259.569 179.429 259.569 182.111V185.358C259.569 187.899 261.268 190.864 263.534 192.134L276.987 199.899L276.703 200.464Z" fill="#27E574"/>
<path d="M281.801 197.499L268.348 189.734C266.083 188.323 264.1 185.076 264.1 182.394V179.288C264.1 176.747 262.401 173.782 260.135 172.512L257.303 170.959L257.586 170.394L260.418 171.947C262.684 173.359 264.666 176.606 264.666 179.288V182.535C264.666 185.076 266.366 188.04 268.631 189.311L282.084 197.075L281.801 197.499Z" fill="#27E574"/>
<path d="M287.04 194.393L273.587 186.629C271.322 185.358 269.339 181.97 269.339 179.288V176.041C269.339 173.5 267.64 170.535 265.374 169.265L262.542 167.712L262.825 167.147L265.657 168.7C267.923 169.97 269.906 173.359 269.906 176.041V179.288C269.906 181.829 271.605 184.794 273.871 186.064L287.323 193.828L287.04 194.393Z" fill="#27E574"/>
<path d="M292.281 191.429L278.828 183.664C276.562 182.252 274.579 179.005 274.579 176.323V173.076C274.579 170.535 272.88 167.571 270.614 166.3L267.782 164.747L268.065 164.182L270.898 165.735C273.163 167.006 275.146 170.394 275.146 173.076V176.323C275.146 178.864 276.845 181.829 279.111 183.099L292.564 190.864L292.281 191.429Z" fill="#27E574"/>
<path d="M297.52 188.464L284.067 180.7C281.801 179.288 279.819 176.041 279.819 173.359V170.112C279.819 167.571 278.119 164.606 275.854 163.335L273.021 161.783L273.305 161.218L276.137 162.771C278.403 164.041 280.385 167.429 280.385 170.112V173.359C280.385 175.9 282.084 178.864 284.35 180.135L297.803 187.899L297.52 188.464Z" fill="#27E574"/>
<path d="M302.759 185.499L289.306 177.735C287.04 176.464 285.058 173.076 285.058 170.394V167.147C285.058 164.606 283.359 161.641 281.093 160.371L278.261 158.818L278.544 158.253L281.376 159.806C283.642 161.077 285.624 164.465 285.624 167.147V170.394C285.624 172.935 287.324 175.9 289.589 177.17L303.042 184.935L302.759 185.499Z" fill="#27E574"/>
<path d="M307.857 182.535L294.404 174.77C292.138 173.359 290.156 170.112 290.156 167.429V164.182C290.156 161.641 288.456 158.677 286.191 157.406L283.358 155.853L283.642 155.289L286.474 156.842C288.74 158.253 290.722 161.5 290.722 164.182V167.429C290.722 169.971 292.421 172.935 294.687 174.206L308.14 181.97L307.857 182.535Z" fill="#27E574"/>
<path d="M313.097 179.429L299.644 171.665C297.378 170.394 295.396 167.006 295.396 164.324V161.077C295.396 158.536 293.697 155.571 291.431 154.3L288.599 152.748L288.882 152.183L291.714 153.736C293.98 155.006 295.962 158.394 295.962 161.077V164.324C295.962 166.865 297.662 169.829 299.927 171.1L313.38 178.864L313.097 179.429Z" fill="#27E574"/>
<path d="M318.336 176.464L304.883 168.7C302.618 167.288 300.635 164.041 300.635 161.359V158.112C300.635 155.571 298.936 152.606 296.67 151.336L293.838 149.783L294.121 149.218L296.953 150.771C299.219 152.183 301.202 155.43 301.202 158.112V161.359C301.202 163.9 302.901 166.865 305.167 168.135L318.619 175.9L318.336 176.464Z" fill="#27E574"/>
<path d="M323.575 173.5L310.123 165.735C307.857 164.465 305.874 161.077 305.874 158.394V155.289C305.874 152.748 304.175 149.783 301.909 148.512L299.077 146.96L299.36 146.395L302.193 147.948C304.458 149.359 306.441 152.606 306.441 155.289V158.536C306.441 161.077 308.14 164.041 310.406 165.312L323.859 173.076L323.575 173.5Z" fill="#27E574"/>
<path d="M328.815 170.535L315.362 162.771C313.096 161.5 311.114 158.112 311.114 155.43V152.183C311.114 149.642 309.414 146.677 307.149 145.407L304.316 143.854L304.6 143.289L307.432 144.842C309.698 146.112 311.68 149.501 311.68 152.183V155.43C311.68 157.971 313.379 160.936 315.645 162.206L329.098 169.97L328.815 170.535Z" fill="#27E574"/>
<path d="M333.913 167.571L320.461 159.806C318.195 158.394 316.212 155.147 316.212 152.465V149.218C316.212 146.677 314.513 143.713 312.247 142.442L309.415 140.889L309.698 140.324L312.53 141.877C314.796 143.148 316.779 146.536 316.779 149.218V152.465C316.779 155.006 318.478 157.971 320.744 159.241L334.197 167.006L333.913 167.571Z" fill="#27E574"/>
<path d="M339.153 164.465L325.7 156.7C323.434 155.43 321.452 152.042 321.452 149.359V146.113C321.452 143.571 319.752 140.607 317.486 139.336L314.654 137.783L314.938 137.219L317.77 138.772C320.035 140.042 322.018 143.43 322.018 146.113V149.359C322.018 151.901 323.717 154.865 325.983 156.136L339.436 163.9L339.153 164.465Z" fill="#27E574"/>
<path d="M344.392 161.5L330.939 153.736C328.673 152.324 326.691 149.077 326.691 146.395V143.148C326.691 140.607 324.991 137.642 322.726 136.372L319.894 134.819L320.177 134.254L323.009 135.807C325.275 137.078 327.257 140.466 327.257 143.148V146.395C327.257 148.936 328.956 151.901 331.222 153.171L344.675 160.935L344.392 161.5Z" fill="#27E574"/>
<path d="M133.961 252.979L133.678 252.415L206.748 210.063C208.872 208.793 210.713 205.828 210.713 203.287V200.04C210.713 197.358 212.554 194.111 214.961 192.699L217.793 191.146L218.077 191.711L215.245 193.264C213.12 194.534 211.279 197.499 211.279 200.04V203.287C211.279 205.969 209.439 209.216 207.031 210.628L133.961 252.979Z" fill="#27E574"/>
<path d="M128.722 250.015L128.438 249.45L201.509 207.099C203.633 205.828 205.474 202.863 205.474 200.322V197.075C205.474 194.393 207.315 191.146 209.722 189.735L212.554 188.182L212.837 188.746L210.005 190.299C207.881 191.57 206.04 194.534 206.04 197.075V200.322C206.04 203.005 204.199 206.252 201.792 207.663L128.722 250.015Z" fill="#27E574"/>
<path d="M123.482 247.05L123.199 246.485L196.269 204.134C198.394 202.863 200.234 199.899 200.234 197.358V194.111C200.234 191.429 202.075 188.182 204.483 186.77L207.315 185.217L207.598 185.782L204.766 187.335C202.642 188.605 200.801 191.57 200.801 194.111V197.358C200.801 200.04 198.96 203.287 196.553 204.699L123.482 247.05Z" fill="#27E574"/>
<path d="M118.242 244.086L117.959 243.521L191.029 201.169C193.153 199.899 194.994 196.934 194.994 194.393V191.146C194.994 188.464 196.835 185.217 199.243 183.805L202.075 182.252L202.358 182.817L199.526 184.37C197.402 185.641 195.561 188.605 195.561 191.146V194.393C195.561 197.075 193.72 200.322 191.312 201.734L118.242 244.086Z" fill="#27E574"/>
<path d="M113.003 240.98L112.72 240.415L185.79 198.064C187.914 196.793 189.755 193.828 189.755 191.287V188.04C189.755 185.358 191.596 182.111 194.003 180.7L196.835 179.147L197.119 179.711L194.286 181.264C192.162 182.535 190.321 185.499 190.321 188.04V191.287C190.321 193.97 188.48 197.217 186.073 198.628L113.003 240.98Z" fill="#27E574"/>
<path d="M107.905 238.015L107.622 237.45L180.692 195.099C182.816 193.828 184.657 190.864 184.657 188.323V185.076C184.657 182.394 186.498 179.147 188.906 177.735L191.738 176.182L192.021 176.747L189.189 178.3C187.065 179.57 185.224 182.535 185.224 185.076V188.323C185.224 191.005 183.383 194.252 180.976 195.664L107.905 238.015Z" fill="#27E574"/>
<path d="M102.666 235.051L102.383 234.486L175.453 192.134C177.577 190.864 179.418 187.899 179.418 185.358V182.111C179.418 179.429 181.259 176.182 183.666 174.77L186.499 173.217L186.782 173.782L183.95 175.335C181.825 176.606 179.985 179.57 179.985 182.111V185.358C179.985 188.04 178.144 191.287 175.736 192.699L102.666 235.051Z" fill="#27E574"/>
<path d="M97.4258 232.086L97.1426 231.521L170.213 189.17C172.337 187.899 174.178 184.935 174.178 182.394V179.288C174.178 176.606 176.019 173.359 178.426 171.947L181.258 170.394L181.542 170.959L178.709 172.512C176.585 173.782 174.744 176.747 174.744 179.288V182.535C174.744 185.217 172.903 188.464 170.496 189.876L97.4258 232.086Z" fill="#27E574"/>
<path d="M92.1865 229.121L91.9033 228.557L164.974 186.205C167.098 184.935 168.939 181.97 168.939 179.429V176.182C168.939 173.5 170.779 170.253 173.187 168.841L176.019 167.288L176.302 167.853L173.47 169.406C171.346 170.676 169.505 173.641 169.505 176.182V179.429C169.505 182.111 167.664 185.358 165.257 186.77L92.1865 229.121Z" fill="#27E574"/>
<path d="M86.9473 226.016L86.6641 225.451L159.734 183.099C161.858 181.829 163.699 178.864 163.699 176.323V173.076C163.699 170.394 165.54 167.147 167.948 165.735L170.78 164.182L171.063 164.747L168.231 166.3C166.107 167.571 164.266 170.535 164.266 173.076V176.323C164.266 179.005 162.425 182.252 160.017 183.664L86.9473 226.016Z" fill="#27E574"/>
<path d="M81.8496 223.051L81.5664 222.486L154.637 180.135C156.761 178.864 158.602 175.9 158.602 173.359V170.112C158.602 167.429 160.443 164.182 162.85 162.771L165.682 161.218L165.965 161.783L163.133 163.335C161.009 164.606 159.168 167.571 159.168 170.112V173.359C159.168 176.041 157.327 179.288 154.92 180.7L81.8496 223.051Z" fill="#27E574"/>
<path d="M76.6094 220.086L76.3262 219.522L149.396 177.17C151.521 175.9 153.361 172.935 153.361 170.394V167.147C153.361 164.465 155.202 161.218 157.61 159.806L160.442 158.253L160.725 158.818L157.893 160.371C155.769 161.641 153.928 164.606 153.928 167.147V170.394C153.928 173.076 152.087 176.323 149.68 177.735L76.6094 220.086Z" fill="#27E574"/>
<path d="M71.3701 217.122L71.0869 216.557L144.157 174.206C146.281 172.935 148.122 169.971 148.122 167.429V164.182C148.122 161.5 149.963 158.253 152.37 156.842L155.203 155.289L155.486 155.853L152.654 157.406C150.53 158.677 148.689 161.641 148.689 164.182V167.429C148.689 170.112 146.848 173.359 144.44 174.77L71.3701 217.122Z" fill="#27E574"/>
<path d="M66.1309 214.157L65.8477 213.593L138.918 171.241C141.042 169.971 142.883 167.006 142.883 164.465V161.218C142.883 158.536 144.724 155.289 147.131 153.877L149.963 152.324L150.247 152.889L147.414 154.442C145.29 155.712 143.449 158.677 143.449 161.218V164.465C143.449 167.147 141.608 170.394 139.201 171.806L66.1309 214.157Z" fill="#27E574"/>
<path d="M60.8906 211.051L60.6074 210.487L133.678 168.135C135.802 166.865 137.643 163.9 137.643 161.359V158.112C137.643 155.43 139.484 152.183 141.891 150.771L144.723 149.218L145.006 149.783L142.174 151.336C140.05 152.606 138.209 155.571 138.209 158.112V161.359C138.209 164.041 136.368 167.288 133.961 168.7L60.8906 211.051Z" fill="#27E574"/>
<path d="M55.793 208.087L55.5098 207.522L128.58 165.171C130.704 163.9 132.545 160.936 132.545 158.394V155.289C132.545 152.606 134.386 149.359 136.793 147.948L139.625 146.395L139.909 146.96L137.077 148.512C134.952 149.783 133.111 152.748 133.111 155.289V158.536C133.111 161.218 131.271 164.465 128.863 165.877L55.793 208.087Z" fill="#27E574"/>
<path d="M50.5537 205.122L50.2705 204.558L123.341 162.206C125.465 160.936 127.306 157.971 127.306 155.43V152.183C127.306 149.501 129.147 146.254 131.554 144.842L134.386 143.289L134.669 143.854L131.837 145.407C129.713 146.677 127.872 149.642 127.872 152.183V155.43C127.872 158.112 126.031 161.359 123.624 162.771L50.5537 205.122Z" fill="#27E574"/>
<path d="M45.3145 202.158L45.0312 201.593L118.101 159.241C120.226 157.971 122.066 155.006 122.066 152.465V149.218C122.066 146.536 123.907 143.289 126.315 141.877L129.147 140.324L129.43 140.889L126.598 142.442C124.474 143.713 122.633 146.677 122.633 149.218V152.465C122.633 155.147 120.792 158.394 118.385 159.806L45.3145 202.158Z" fill="#27E574"/>
<path d="M40.0742 199.052L39.791 198.487L112.861 156.136C114.985 154.865 116.826 151.901 116.826 149.359V146.113C116.826 143.43 118.667 140.183 121.075 138.772L123.907 137.219L124.19 137.783L121.358 139.336C119.234 140.607 117.393 143.571 117.393 146.113V149.359C117.393 152.042 115.552 155.289 113.144 156.7L40.0742 199.052Z" fill="#27E574"/>
<path d="M34.835 196.087L34.5518 195.523L107.622 153.171C109.746 151.901 111.587 148.936 111.587 146.395V143.148C111.587 140.466 113.428 137.219 115.835 135.807L118.667 134.254L118.951 134.819L116.118 136.372C113.994 137.642 112.153 140.607 112.153 143.148V146.395C112.153 149.077 110.313 152.324 107.905 153.736L34.835 196.087Z" fill="#27E574"/>
<g opacity="0.1">
<path opacity="0.1" d="M276.846 316.789L260.985 307.754V325.965L276.846 335L292.564 325.965V307.754L276.846 316.789Z" fill="#42E8E0"/>
<path opacity="0.1" d="M276.845 335L260.985 325.965V307.754L276.845 316.789V335Z" fill="#42E8E0"/>
<path opacity="0.1" d="M292.564 325.965L276.846 335V316.789L292.564 307.754V325.965Z" fill="#2FD3C7"/>
<path opacity="0.1" d="M276.846 316.789L260.985 307.754L276.846 298.719L292.564 307.754L276.846 316.789Z" fill="#42E8E0"/>
<path opacity="0.1" d="M276.846 316.789L260.985 307.754V308.601L276.846 317.636L292.564 308.601V307.754L276.846 316.789Z" fill="white"/>
</g>
<path opacity="0.2" d="M276.846 305.777L260.985 296.742L276.846 287.707L292.564 296.742L276.846 305.777Z" fill="#03002D"/>
<path d="M276.846 273.873L260.985 264.838V283.049L276.846 292.084L292.564 283.049V264.838L276.846 273.873Z" fill="#42E8E0"/>
<path d="M276.845 292.084L260.985 283.049V264.838L276.845 273.873V292.084Z" fill="#12DB63"/>
<path d="M292.564 283.049L276.846 292.084V273.873L292.564 264.838V283.049Z" fill="#1DBE5E"/>
<path d="M276.846 273.873L260.985 264.838L276.846 255.803L292.564 264.838L276.846 273.873Z" fill="#12DB63"/>
<path d="M276.846 273.873L260.985 264.838V265.544L276.846 274.72L292.564 265.544V264.838L276.846 273.873Z" fill="#4CFF94"/>
<g opacity="0.1">
<path opacity="0.1" d="M45.1737 315.518L29.3135 306.342V324.553L45.1737 333.588L60.8923 324.553V306.342L45.1737 315.518Z" fill="#42E8E0"/>
<path opacity="0.1" d="M45.1737 333.588L29.3135 324.553V306.342L45.1737 315.518V333.588Z" fill="#42E8E0"/>
<path opacity="0.1" d="M60.8924 324.553L45.1738 333.588V315.518L60.8924 306.342V324.553Z" fill="#2FD3C7"/>
<path opacity="0.1" d="M45.1737 315.518L29.3135 306.342L45.1737 297.307L60.8923 306.342L45.1737 315.518Z" fill="#42E8E0"/>
<path opacity="0.1" d="M45.1737 315.518L29.3135 306.342V307.189L45.1737 316.224L60.8923 307.189V306.342L45.1737 315.518Z" fill="white"/>
</g>
<path opacity="0.2" d="M45.1737 304.507L29.3135 295.331L45.1737 286.296L60.8923 295.331L45.1737 304.507Z" fill="#03002D"/>
<path d="M45.1737 272.461L29.3135 263.426V281.637L45.1737 290.672L60.8923 281.637V263.426L45.1737 272.461Z" fill="#42E8E0"/>
<path d="M45.1737 290.672L29.3135 281.637V263.426L45.1737 272.461V290.672Z" fill="#12DB63"/>
<path d="M60.8924 281.637L45.1738 290.672V272.461L60.8924 263.426V281.637Z" fill="#1DBE5E"/>
<path d="M45.1737 272.461L29.3135 263.426L45.1737 254.391L60.8923 263.426L45.1737 272.461Z" fill="#12DB63"/>
<path d="M45.1737 272.461L29.3135 263.426V264.273L45.1737 273.308L60.8923 264.273V263.426L45.1737 272.461Z" fill="#4CFF94"/>
<g opacity="0.1">
<path opacity="0.1" d="M15.7186 142.724L0 133.548V151.759L15.7186 160.794L31.5788 151.759V133.548L15.7186 142.724Z" fill="#42E8E0"/>
<path opacity="0.1" d="M15.7186 160.794L0 151.759V133.548L15.7186 142.724V160.794Z" fill="#42E8E0"/>
<path opacity="0.1" d="M31.5789 151.759L15.7188 160.794V142.724L31.5789 133.548V151.759Z" fill="#2FD3C7"/>
<path opacity="0.1" d="M15.7186 142.724L0 133.548L15.7186 124.513L31.5788 133.548L15.7186 142.724Z" fill="#42E8E0"/>
<path opacity="0.1" d="M15.7186 142.724L0 133.548V134.395L15.7186 143.43L31.5788 134.395V133.548L15.7186 142.724Z" fill="white"/>
</g>
<path opacity="0.2" d="M15.7186 131.713L0 122.537L15.7186 113.502L31.5788 122.537L15.7186 131.713Z" fill="#03002D"/>
<path d="M15.7186 99.8083L0 90.6321V108.843L15.7186 117.878L31.5788 108.843V90.6321L15.7186 99.8083Z" fill="#42E8E0"/>
<path d="M15.7186 117.878L0 108.843V90.6321L15.7186 99.8083V117.878Z" fill="#12DB63"/>
<path d="M31.5789 108.843L15.7188 117.878V99.8083L31.5789 90.6321V108.843Z" fill="#1DBE5E"/>
<path d="M15.7186 99.8083L0 90.6321L15.7186 81.5971L31.5788 90.6321L15.7186 99.8083Z" fill="#12DB63"/>
<path d="M15.7186 99.8082L0 90.6321V91.4792L15.7186 100.514L31.5788 91.4792V90.6321L15.7186 99.8082Z" fill="#4CFF94"/>
<path opacity="0.4" d="M239.177 183.664L130.563 121.125C127.731 119.572 128.156 116.749 131.413 114.772L194.854 78.3502C198.111 76.515 203.067 76.2326 205.758 77.9267L314.372 140.466C317.204 142.019 316.779 144.842 313.522 146.818L250.081 183.241C246.824 185.076 242.009 185.358 239.177 183.664Z" fill="#24126A"/>
<path d="M343.118 91.7615L341.277 91.4791C341.136 91.338 340.852 91.1968 340.711 91.0556L200.801 10.5879C197.119 8.47029 190.888 8.75263 186.64 11.1526L105.073 58.1627C103.941 58.7273 103.091 59.4332 102.524 60.2802L101.533 59.9979V62.8213C101.533 64.0919 102.383 65.3624 103.941 66.3506L243.85 146.818C247.532 148.936 253.763 148.654 258.011 146.254L339.578 99.2436C341.844 97.8319 343.118 96.1378 342.976 94.5849V91.7615H343.118Z" fill="#9FFFF8"/>
<path d="M243.992 143.995L104.082 63.5272C100.4 61.4096 100.967 57.8803 105.073 55.4804L186.782 8.47029C190.888 6.07038 197.261 5.78803 200.943 7.90561L340.852 88.3734C344.534 90.4909 343.968 94.0202 339.861 96.4201L258.294 143.43C253.904 145.83 247.674 146.113 243.992 143.995Z" fill="#42E8E0"/>
<path d="M243.992 143.995L104.082 63.5272C100.4 61.4096 100.967 57.8803 105.073 55.4804L186.782 8.47029C190.888 6.07038 197.261 5.78803 200.943 7.90561L340.852 88.3734C344.534 90.4909 343.968 94.0202 339.861 96.4201L258.294 143.43C253.904 145.83 247.674 146.113 243.992 143.995Z" fill="url(#paint10_radial_1244_11394)"/>
<path opacity="0.7" d="M266.508 138.63L113.57 50.5394L129.855 41.2221L282.793 129.172L266.508 138.63Z" fill="#453C9E"/>
<path opacity="0.7" d="M264.101 99.8083L218.078 73.268L229.407 66.7741L275.43 93.3144L264.101 99.8083Z" fill="white"/>
<path d="M82.9825 59.5744C98.2763 55.7627 114.278 40.375 118.526 25.2697C120.651 17.6464 119.518 11.5761 115.977 7.9056L112.154 4.09397L112.296 5.50569C108.755 3.81163 104.082 3.52929 98.5595 4.941C83.4074 8.61146 67.5472 23.9992 63.1573 39.1045C61.5996 44.3279 61.7412 48.8453 63.1573 52.3746L61.8828 52.5158L65.7063 56.4686L65.8479 56.6098C69.5297 60.1391 75.4773 61.4096 82.9825 59.5744Z" fill="#A7FFCA"/>
<path d="M101.135 42.7454C115.021 29.3574 119.974 12.0075 112.199 3.99342C104.424 -4.02067 86.8651 0.335767 72.9796 13.7238C59.0942 27.1118 54.1408 44.4617 61.9157 52.4758C69.6907 60.4899 87.2499 56.1334 101.135 42.7454Z" fill="#12DB63"/>
<path d="M74.3446 53.6452C70.3796 53.6452 66.9809 52.3746 64.5736 49.9747C61.175 46.4454 60.3253 40.9397 62.1662 34.3047C65.9897 20.7522 80.2922 7.05858 93.8867 3.67046C100.542 1.9764 106.065 2.9646 109.605 6.49389C113.004 10.0232 113.854 15.5289 112.013 22.1639C108.048 35.7164 93.8866 49.41 80.1506 52.7982C78.1681 53.3628 76.1855 53.6452 74.3446 53.6452ZM99.8342 3.67046C97.9933 3.67046 96.1524 3.9528 94.0283 4.37632C80.717 7.76444 66.6977 21.1757 62.8743 34.4459C61.0334 40.7986 61.883 46.1631 64.9984 49.41C68.2554 52.7982 73.495 53.6452 80.009 52.0923C93.4618 48.8454 107.481 35.2929 111.305 22.0228C113.145 15.67 112.296 10.4467 109.039 7.05858C106.915 4.79983 103.658 3.67046 99.8342 3.67046Z" fill="#4CFF94"/>
<g opacity="0.1">
<path opacity="0.1" d="M151.238 213.734C151.238 197.922 140.192 178.864 126.456 170.959C119.659 167.006 113.428 166.582 108.897 169.265L104.224 171.947L105.64 172.088C103.232 175.053 101.675 179.57 101.675 185.217C101.675 201.028 112.72 220.086 126.456 227.992C131.129 230.674 135.519 231.662 139.343 231.239L139.201 232.509L144.016 229.686L144.158 229.545C148.547 227.004 151.238 221.498 151.238 213.734Z" fill="#9FFFF8"/>
<path opacity="0.1" d="M146.424 216.557C146.424 232.368 135.378 238.721 121.642 230.815C107.906 222.91 96.8604 203.852 96.8604 188.04C96.8604 172.229 107.906 165.877 121.642 173.782C135.378 181.688 146.424 200.746 146.424 216.557Z" fill="#42E8E0"/>
</g>
<path opacity="0.4" d="M123.341 239.427C106.207 239.427 89.2136 235.615 76.1856 228.133C63.5824 220.792 56.6436 211.193 56.6436 200.887C56.6436 190.582 63.5824 180.841 76.1856 173.641C102.242 158.677 144.583 158.677 170.497 173.641C183.1 180.982 190.039 190.582 190.039 200.887C190.039 211.193 183.1 220.933 170.497 228.133C157.469 235.756 140.334 239.427 123.341 239.427ZM123.341 162.912C106.348 162.912 89.3552 166.582 76.4688 174.064C64.0072 181.264 57.0684 190.723 57.0684 200.887C57.0684 211.051 64.0072 220.51 76.4688 227.71C102.383 242.674 144.441 242.674 170.356 227.71C182.817 220.51 189.756 211.051 189.756 200.887C189.756 190.723 182.817 181.264 170.356 174.064C157.327 166.582 140.334 162.912 123.341 162.912Z" fill="#42E8E0"/>
<path opacity="0.2" d="M123.341 249.732C101.675 249.732 80.009 244.933 63.4407 235.474C47.4389 226.298 38.5176 214.016 38.5176 200.887C38.5176 187.758 47.2973 175.476 63.4407 166.3C96.4356 147.242 150.105 147.242 183.1 166.3C199.102 175.476 208.023 187.758 208.023 200.887C208.023 214.016 199.244 226.298 183.1 235.474C166.674 245.074 145.007 249.732 123.341 249.732ZM123.341 152.606C101.817 152.606 80.1506 157.265 63.724 166.865C47.8638 176.041 39.084 188.182 39.084 201.028C39.084 213.875 47.8638 226.016 63.724 235.192C96.5772 254.109 150.105 254.109 182.959 235.192L183.1 235.474L182.959 235.192C198.819 226.016 207.599 213.875 207.599 201.028C207.599 188.182 198.819 176.041 182.959 166.865C166.532 157.265 144.866 152.606 123.341 152.606Z" fill="#42E8E0"/>
<path d="M123.342 231.38C109.889 231.38 96.4359 228.416 86.0985 222.486C76.1858 216.698 70.6631 209.075 70.6631 200.887C70.6631 192.699 76.1858 185.076 86.0985 179.288C106.632 167.429 139.91 167.429 160.443 179.288C170.356 185.076 175.879 192.699 175.879 200.887C175.879 209.075 170.356 216.698 160.443 222.486C150.247 228.416 136.794 231.38 123.342 231.38ZM123.342 171.1C110.03 171.1 96.5775 174.064 86.3817 179.852C76.6107 185.499 71.0879 192.981 71.0879 201.028C71.0879 208.934 76.469 216.557 86.3817 222.204C106.773 233.921 139.91 233.921 160.302 222.204C170.073 216.557 175.595 209.075 175.595 201.028C175.595 193.123 170.214 185.499 160.302 179.852C150.106 173.923 136.653 171.1 123.342 171.1Z" fill="#42E8E0"/>
<path d="M151.238 213.734C151.238 197.922 140.192 178.864 126.456 170.959C119.659 167.006 113.428 166.582 108.897 169.265L104.224 171.947L105.64 172.088C103.232 175.053 101.675 179.57 101.675 185.217C101.675 201.028 112.72 220.086 126.456 227.992C131.129 230.674 135.519 231.662 139.343 231.239L139.201 232.509L144.016 229.686L144.158 229.545C148.547 227.004 151.238 221.498 151.238 213.734Z" fill="#A7FFCA"/>
<path d="M146.424 216.557C146.424 232.368 135.378 238.721 121.642 230.815C107.906 222.91 96.8604 203.852 96.8604 188.04C96.8604 172.229 107.906 165.877 121.642 173.782C135.378 181.688 146.424 200.746 146.424 216.557Z" fill="#12DB63"/>
<path d="M131.696 231.38C128.581 231.38 125.182 230.392 121.5 228.274C109.039 221.075 98.9844 203.71 98.9844 189.452C98.9844 182.535 101.392 177.311 105.64 174.77C110.03 172.229 115.694 172.794 121.783 176.323C134.245 183.523 144.299 200.887 144.299 215.145C144.299 222.204 141.892 227.286 137.644 229.827C135.944 230.815 133.82 231.38 131.696 231.38ZM111.729 173.923C109.605 173.923 107.764 174.347 106.065 175.335C101.958 177.735 99.6924 182.676 99.6924 189.452C99.6924 203.428 109.605 220.651 121.783 227.71C127.589 231.098 133.112 231.662 137.219 229.262C141.325 226.863 143.591 221.922 143.591 215.145C143.591 201.169 133.679 183.946 121.5 176.888C118.102 174.912 114.703 173.923 111.729 173.923Z" fill="#4CFF94"/>
<g opacity="0.1">
<path opacity="0.1" d="M357.421 265.826C357.421 250.015 368.466 230.957 382.202 223.051C389 219.098 395.23 218.675 399.762 221.357L404.435 224.039L403.019 224.18C405.426 227.145 406.984 231.662 406.984 237.309C406.984 253.121 395.939 272.179 382.202 280.084C377.529 282.767 373.139 283.755 369.316 283.331L369.458 284.602L364.643 281.778L364.501 281.637C360.111 278.955 357.421 273.59 357.421 265.826Z" fill="#9FFFF8"/>
<path opacity="0.1" d="M404.353 264.365C414.012 247.687 413.99 229.649 404.305 224.074C394.62 218.499 378.938 227.5 369.28 244.177C359.621 260.854 359.642 278.893 369.328 284.468C379.013 290.042 394.694 281.042 404.353 264.365Z" fill="#42E8E0"/>
</g>
<path opacity="0.4" d="M385.318 291.519C368.183 291.519 351.19 287.708 338.162 280.226C325.559 272.885 318.62 263.285 318.62 252.979C318.62 242.674 325.559 232.933 338.162 225.733C364.218 210.769 406.559 210.769 432.474 225.733C445.077 233.074 452.016 242.674 452.016 252.979C452.016 263.285 445.077 273.026 432.474 280.226C419.446 287.708 402.311 291.519 385.318 291.519ZM385.318 214.863C368.325 214.863 351.332 218.534 338.445 226.016C325.984 233.215 319.045 242.815 319.045 252.838C319.045 263.003 325.984 272.461 338.445 279.661C364.36 294.625 406.418 294.625 432.332 279.661C444.794 272.461 451.733 262.861 451.733 252.838C451.733 242.674 444.794 233.215 432.332 226.016C419.304 218.675 402.311 214.863 385.318 214.863Z" fill="#42E8E0"/>
<path opacity="0.2" d="M385.318 301.825C363.652 301.825 341.986 297.025 325.417 287.566C309.416 278.39 300.494 266.108 300.494 252.979C300.494 239.85 309.274 227.568 325.417 218.392C358.412 199.334 412.082 199.334 445.077 218.392C461.079 227.568 470 239.85 470 252.979C470 266.108 461.22 278.39 445.077 287.566C428.65 297.025 406.984 301.825 385.318 301.825ZM385.318 204.558C363.793 204.558 342.127 209.216 325.701 218.816C309.84 227.992 301.061 240.133 301.061 252.979C301.061 265.826 309.84 277.967 325.701 287.143C358.554 306.06 412.082 306.06 444.935 287.143C460.795 277.967 469.575 265.826 469.575 252.979C469.575 240.133 460.795 227.992 444.935 218.816C428.509 209.357 406.842 204.558 385.318 204.558Z" fill="#42E8E0"/>
<path d="M385.318 283.331C371.865 283.331 358.412 280.367 348.075 274.437C338.162 268.649 332.64 261.026 332.64 252.838C332.64 244.65 338.162 237.027 348.075 231.239C368.608 219.381 401.886 219.381 422.42 231.239C432.332 237.027 437.855 244.65 437.855 252.838C437.855 261.026 432.332 268.649 422.42 274.437C412.224 280.367 398.771 283.331 385.318 283.331ZM385.318 223.051C372.007 223.051 358.554 226.016 348.358 231.804C338.587 237.45 333.064 244.933 333.064 252.979C333.064 261.026 338.446 268.508 348.358 274.155C368.75 285.872 401.886 285.872 422.278 274.155C432.049 268.508 437.572 261.026 437.572 252.979C437.572 244.933 432.191 237.45 422.278 231.804C412.082 226.016 398.629 223.051 385.318 223.051Z" fill="#42E8E0"/>
<path d="M357.421 265.826C357.421 250.015 368.466 230.957 382.202 223.051C389 219.098 395.23 218.675 399.762 221.357L404.435 224.039L403.019 224.18C405.426 227.145 406.984 231.662 406.984 237.309C406.984 253.121 395.939 272.179 382.202 280.084C377.529 282.767 373.139 283.755 369.316 283.331L369.458 284.602L364.643 281.778L364.501 281.637C360.111 278.955 357.421 273.59 357.421 265.826Z" fill="#A7FFCA"/>
<path d="M404.353 264.365C414.012 247.687 413.99 229.649 404.305 224.074C394.62 218.499 378.938 227.5 369.28 244.177C359.621 260.854 359.642 278.893 369.328 284.468C379.013 290.042 394.694 281.042 404.353 264.365Z" fill="#12DB63"/>
<path d="M376.963 283.331C374.838 283.331 372.714 282.767 371.015 281.778C366.625 279.237 364.359 274.014 364.359 267.096C364.359 252.838 374.414 235.474 386.875 228.274C392.964 224.745 398.629 224.18 403.019 226.721C407.409 229.263 409.674 234.486 409.674 241.403C409.674 255.662 399.62 273.026 387.158 280.225C383.477 282.343 380.078 283.331 376.963 283.331ZM396.788 225.874C393.814 225.874 390.415 226.863 387.017 228.839C374.838 235.898 364.926 252.979 364.926 267.096C364.926 273.873 367.192 278.814 371.298 281.214C375.405 283.614 380.928 283.049 386.734 279.661C398.912 272.602 408.825 255.52 408.825 241.403C408.825 234.627 406.559 229.686 402.452 227.286C400.753 226.439 398.912 225.874 396.788 225.874Z" fill="#4CFF94"/>
</g>
<defs>
<linearGradient id="paint0_linear_1244_11394" x1="9.45898" y1="162.907" x2="435.777" y2="162.907" gradientUnits="userSpaceOnUse">
<stop stop-color="#BCBEFF"/>
<stop offset="0.151" stop-color="#A3A7F5"/>
<stop offset="0.3866" stop-color="#8289E8"/>
<stop offset="0.6124" stop-color="#6A73DF"/>
<stop offset="0.8221" stop-color="#5C66D9"/>
<stop offset="1" stop-color="#5761D7"/>
</linearGradient>
<radialGradient id="paint1_radial_1244_11394" cx="0" cy="0" r="1" gradientUnits="userSpaceOnUse" gradientTransform="translate(237.325 65.5427) scale(400.539 399.302)">
<stop stop-color="#42E8E0"/>
<stop offset="0.1055" stop-color="#37B6BF"/>
<stop offset="0.2197" stop-color="#2C87A1"/>
<stop offset="0.338" stop-color="#235F87"/>
<stop offset="0.4587" stop-color="#1C3F72"/>
<stop offset="0.5824" stop-color="#162561"/>
<stop offset="0.7105" stop-color="#121355"/>
<stop offset="0.8458" stop-color="#10084E"/>
<stop offset="1" stop-color="#0F054C"/>
</radialGradient>
<linearGradient id="paint2_linear_1244_11394" x1="281.997" y1="223.034" x2="163.463" y2="65.2471" gradientUnits="userSpaceOnUse">
<stop stop-color="#42E8E0"/>
<stop offset="0.1055" stop-color="#37B6BF"/>
<stop offset="0.2197" stop-color="#2C87A1"/>
<stop offset="0.338" stop-color="#235F87"/>
<stop offset="0.4587" stop-color="#1C3F72"/>
<stop offset="0.5824" stop-color="#162561"/>
<stop offset="0.7105" stop-color="#121355"/>
<stop offset="0.8458" stop-color="#10084E"/>
<stop offset="1" stop-color="#0F054C"/>
</linearGradient>
<linearGradient id="paint3_linear_1244_11394" x1="65.8133" y1="168.817" x2="329.684" y2="168.817" gradientUnits="userSpaceOnUse">
<stop stop-color="#706EC4"/>
<stop offset="0.0222208" stop-color="#6D6BC2"/>
<stop offset="0.2509" stop-color="#5651AC"/>
<stop offset="0.4865" stop-color="#463F9D"/>
<stop offset="0.7314" stop-color="#3C3494"/>
<stop offset="1" stop-color="#393091"/>
</linearGradient>
<linearGradient id="paint4_linear_1244_11394" x1="140.489" y1="133.271" x2="298.871" y2="133.271" gradientUnits="userSpaceOnUse">
<stop stop-color="#42E8E0"/>
<stop offset="0.1507" stop-color="#43E3E0"/>
<stop offset="0.3285" stop-color="#45D5DF"/>
<stop offset="0.5199" stop-color="#49BDDD"/>
<stop offset="0.7209" stop-color="#4E9CDB"/>
<stop offset="0.9274" stop-color="#5472D8"/>
<stop offset="1" stop-color="#5761D7"/>
</linearGradient>
<linearGradient id="paint5_linear_1244_11394" x1="219.678" y1="104.734" x2="298.87" y2="104.734" gradientUnits="userSpaceOnUse">
<stop stop-color="#42E8E0"/>
<stop offset="0.1507" stop-color="#43E3E0"/>
<stop offset="0.3285" stop-color="#45D5DF"/>
<stop offset="0.5199" stop-color="#49BDDD"/>
<stop offset="0.7209" stop-color="#4E9CDB"/>
<stop offset="0.9274" stop-color="#5472D8"/>
<stop offset="1" stop-color="#5761D7"/>
</linearGradient>
<linearGradient id="paint6_linear_1244_11394" x1="140.489" y1="104.734" x2="219.681" y2="104.734" gradientUnits="userSpaceOnUse">
<stop stop-color="#42E8E0"/>
<stop offset="0.1507" stop-color="#43E3E0"/>
<stop offset="0.3285" stop-color="#45D5DF"/>
<stop offset="0.5199" stop-color="#49BDDD"/>
<stop offset="0.7209" stop-color="#4E9CDB"/>
<stop offset="0.9274" stop-color="#5472D8"/>
<stop offset="1" stop-color="#5761D7"/>
</linearGradient>
<linearGradient id="paint7_linear_1244_11394" x1="140.489" y1="121.777" x2="298.871" y2="121.777" gradientUnits="userSpaceOnUse">
<stop stop-color="#42E8E0"/>
<stop offset="0.1507" stop-color="#43E3E0"/>
<stop offset="0.3285" stop-color="#45D5DF"/>
<stop offset="0.5199" stop-color="#49BDDD"/>
<stop offset="0.7209" stop-color="#4E9CDB"/>
<stop offset="0.9274" stop-color="#5472D8"/>
<stop offset="1" stop-color="#5761D7"/>
</linearGradient>
<linearGradient id="paint8_linear_1244_11394" x1="219.681" y1="150.314" x2="298.87" y2="150.314" gradientUnits="userSpaceOnUse">
<stop stop-color="#42E8E0"/>
<stop offset="0.1507" stop-color="#43E3E0"/>
<stop offset="0.3285" stop-color="#45D5DF"/>
<stop offset="0.5199" stop-color="#49BDDD"/>
<stop offset="0.7209" stop-color="#4E9CDB"/>
<stop offset="0.9274" stop-color="#5472D8"/>
<stop offset="1" stop-color="#5761D7"/>
</linearGradient>
<linearGradient id="paint9_linear_1244_11394" x1="140.489" y1="150.313" x2="219.681" y2="150.313" gradientUnits="userSpaceOnUse">
<stop stop-color="#42E8E0"/>
<stop offset="0.1507" stop-color="#43E3E0"/>
<stop offset="0.3285" stop-color="#45D5DF"/>
<stop offset="0.5199" stop-color="#49BDDD"/>
<stop offset="0.7209" stop-color="#4E9CDB"/>
<stop offset="0.9274" stop-color="#5472D8"/>
<stop offset="1" stop-color="#5761D7"/>
</linearGradient>
<radialGradient id="paint10_radial_1244_11394" cx="0" cy="0" r="1" gradientUnits="userSpaceOnUse" gradientTransform="translate(176.622 6.29511) scale(263.826 263.011)">
<stop stop-color="#42E8E0"/>
<stop offset="0.0167089" stop-color="#43E0DE"/>
<stop offset="0.1117" stop-color="#47BAD1"/>
<stop offset="0.2141" stop-color="#4B9AC7"/>
<stop offset="0.3237" stop-color="#4E7FBE"/>
<stop offset="0.4431" stop-color="#506BB7"/>
<stop offset="0.5775" stop-color="#525CB3"/>
<stop offset="0.7389" stop-color="#5354B0"/>
<stop offset="1" stop-color="#5351AF"/>
</radialGradient>
<clipPath id="clip0_1244_11394">
<rect width="470" height="335" fill="white"/>
</clipPath>
</defs>
</svg>
